<?xml version="1.0" encoding="utf-8"?>
<!-- Generator: Adobe Adobe Illustrator 24.2.0, SVG Export Plug-In . SVG Version: 6.00 Build 0)  -->
<svg version="1.1" id="Layer_1" xmlns="http://www.w3.org/2000/svg" xmlns:xlink="http://www.w3.org/1999/xlink" x="0px" y="0px"
	 width="276px" height="227.29px" viewBox="0 0 276 227.29" style="enable-background:new 0 0 276 227.29;" xml:space="preserve">
<style type="text/css">
	.st0{fill:#FFFFFF;}
	.st1{fill:#2C3C47;}
	.st2{fill:#275B4E;}
	.st3{fill:#750204;}
	.st4{fill:none;stroke:#FFFFFF;stroke-width:2;stroke-miterlimit:10;}
	.st5{fill:none;stroke:#2C3C47;stroke-width:2;stroke-miterlimit:10;}
	.st6{fill:none;stroke:#275B4E;stroke-width:2;stroke-miterlimit:10;}
	.st7{fill:none;stroke:#750204;stroke-width:2;stroke-miterlimit:10;}
	.st8{fill:none;stroke:#000000;stroke-width:2;stroke-miterlimit:10;}
	.st9{fill:none;stroke:#2C3C47;stroke-width:3;stroke-miterlimit:10;}
	.st10{fill:#2C3C47;stroke:#2C3C47;stroke-width:3;stroke-miterlimit:10;}
	.st11{fill:#285C4F;}
</style>
<path class="st1" d="M8.56,164.18c18.22,22.95,50.9,30.99,79.63,25.25c28.73-5.74,53.86-23.27,74.81-43.75
	c14.84-14.49,28.22-30.79,45.52-42.23s40.08-17.36,58.91-8.68c0-9.63-8.49-16.31-24.56-17.23c-8.82-0.5-17.67,1.45-25.3,5.89
	c-10.98,6.38-19.36,14.88-30.66,20.02c-9.59,4.36-21.11,6.03-30.52,1.3c-8.11-4.07-13.06-10.08-17.88-16.9
	c-12.12-17.12-38.39-36-58.57-41.72c-21.04-5.97-43-8.18-63.93-14.5c-0.92,20.09,5.62,40.44,18.08,56.24s30.71,26.91,50.47,30.7
	c8.98,1.73,18.19,1.99,27.15,3.84c7.04,1.46,14.11,4.07,19.59,8.59c0.89,0.73,0.03,2.13-1.04,1.72
	c-11.89-4.44-25.81-2.51-37.85,2.14c-13.82,5.34-26.15,13.89-39.58,20.15C39.4,161.31,23.89,165.25,8.56,164.18z"/>
</svg>
